<mxfile host="app.diagrams.net" modified="2024-03-13T07:58:22.416Z" agent="Mozilla/5.0 (Windows NT 10.0; Win64; x64; rv:123.0) Gecko/20100101 Firefox/123.0" version="24.0.4" etag="mMCgjSaf0AYrtTew_8Zo" type="github">
  <diagram name="第 1 页" id="2D09tRjOOLw1QeDDmu1q">
    <mxGraphModel>
      <root>
        <mxCell id="0" />
        <mxCell id="1" parent="0" />
      </root>
    </mxGraphModel>
  </diagram>
</mxfile>
